<svg id="Capa_1" enable-background="new 0 0 497 497" height="512" viewBox="0 0 497 497" width="512" xmlns="http://www.w3.org/2000/svg"><g><circle cx="248.5" cy="248.5" fill="#bed9fd" r="248.5"/><path d="m248.5 0c-5.038 0-10.036.168-15 .464 130.256 7.757 233.5 115.831 233.5 248.036s-103.244 240.279-233.5 248.036c4.964.296 9.962.464 15 .464 137.243 0 248.5-111.257 248.5-248.5s-111.257-248.5-248.5-248.5z" fill="#9ec8fc"/><path d="m354.069 403.116c-30.054 20.56-66.407 32.585-105.569 32.585-103.388 0-187.201-83.813-187.201-187.201s83.813-187.201 187.201-187.201 187.201 83.813 187.201 187.201c0 53.058-22.074 100.961-57.539 135.026" fill="#80b6fc"/><circle cx="248.5" cy="248.5" fill="#62a4fb" r="121.396"/><circle cx="392.356" cy="312.989" fill="#f7f7f7" r="7.5"/><circle cx="88.424" cy="400.536" fill="#f7f7f7" r="7.5"/><path d="m248.5 248.5-176.089-175.342c46.615-46.814 110.025-73.158 176.089-73.158 66.049 0 129.447 26.333 176.06 73.128z" fill="#5392f9"/><path d="m248.5 0c-5.018 0-10.019.171-15 .472 37.308 2.257 73.41 12.89 105.702 30.824 31.292 17.379 37.239 59.88 11.88 85.14l-117.585 117.125 15.003 14.939 176.06-175.372c-46.613-46.795-110.011-73.128-176.06-73.128z" fill="#4981f8"/><circle cx="195.691" cy="104.168" fill="#f7f7f7" r="7.5"/><circle cx="184.415" cy="289.951" fill="#f7f7f7" r="7.5"/><g fill="#4071f7"><path d="m248.5 256c-1.919 0-3.839-.732-5.303-2.197l-218.495-218.495c-2.929-2.929-2.929-7.678 0-10.606 2.929-2.929 7.678-2.929 10.606 0l218.495 218.495c2.929 2.929 2.929 7.678 0 10.606-1.464 1.465-3.384 2.197-5.303 2.197z"/><path d="m248.5 256c-1.919 0-3.839-.732-5.303-2.197-2.929-2.929-2.929-7.678 0-10.606l218.495-218.495c2.929-2.929 7.678-2.929 10.606 0 2.929 2.929 2.929 7.678 0 10.606l-218.495 218.495c-1.464 1.465-3.384 2.197-5.303 2.197z"/></g></g></svg>